<svg width="16" height="16" viewBox="0 0 16 16" fill="none" xmlns="http://www.w3.org/2000/svg">
<g clip-path="url(#clip0_44_337)">
<path d="M10.6667 1.33325C10.83 1.33327 10.9876 1.39322 11.1096 1.50173C11.2316 1.61023 11.3096 1.75975 11.3287 1.92192L11.3333 1.99992V2.66659H12C12.5101 2.66656 13.001 2.86147 13.3722 3.21144C13.7433 3.56141 13.9667 4.03999 13.9967 4.54925L14 4.66658V12.6666C14 13.1767 13.8051 13.6676 13.4551 14.0388C13.1052 14.4099 12.6266 14.6333 12.1173 14.6633L12 14.6666H4C3.48986 14.6666 2.99899 14.4717 2.62783 14.1217C2.25666 13.7718 2.03326 13.2932 2.00333 12.7839L2 12.6666V4.66658C1.99997 4.15644 2.19488 3.66558 2.54486 3.29441C2.89483 2.92325 3.3734 2.69985 3.88267 2.66992L4 2.66659H4.66667V1.99992C4.66686 1.83 4.73192 1.66656 4.84857 1.54301C4.96521 1.41945 5.12464 1.3451 5.29426 1.33514C5.46389 1.32518 5.63092 1.38037 5.76122 1.48943C5.89152 1.59849 5.97526 1.75319 5.99533 1.92192L6 1.99992V2.66659H10V1.99992C10 1.82311 10.0702 1.65354 10.1953 1.52851C10.3203 1.40349 10.4899 1.33325 10.6667 1.33325ZM12.6667 6.66658H3.33333V12.4166C3.33333 12.8866 3.59067 13.2739 3.922 13.3273L4 13.3333H12C12.342 13.3333 12.624 12.9799 12.662 12.5233L12.6667 12.4166V6.66658ZM6.66667 9.33325C6.84348 9.33325 7.01305 9.40349 7.13807 9.52851C7.2631 9.65354 7.33333 9.82311 7.33333 9.99992V11.3333C7.33333 11.5101 7.2631 11.6796 7.13807 11.8047C7.01305 11.9297 6.84348 11.9999 6.66667 11.9999H5.33333C5.15652 11.9999 4.98695 11.9297 4.86193 11.8047C4.7369 11.6796 4.66667 11.5101 4.66667 11.3333V9.99992C4.66667 9.82311 4.7369 9.65354 4.86193 9.52851C4.98695 9.40349 5.15652 9.33325 5.33333 9.33325H6.66667Z" fill="#B2B4BC"/>
</g>
<defs>
<clipPath id="clip0_44_337">
<rect width="16" height="16" fill="white"/>
</clipPath>
</defs>
</svg>
