<svg width="16" height="16" viewBox="0 0 16 16" fill="none" xmlns="http://www.w3.org/2000/svg">
<g clip-path="url(#clip0_253_331)">
<path d="M8.00001 1.33325C7.85468 1.33325 7.71201 1.33459 7.57201 1.33659L7.16134 1.34792L6.96201 1.35659L6.57601 1.37925L6.20734 1.40992C3.01734 1.71925 1.71934 3.01725 1.41001 6.20725L1.37934 6.57592L1.35668 6.96192C1.35334 7.02725 1.35001 7.09392 1.34801 7.16125L1.33668 7.57192L1.33401 7.78392L1.33334 7.99992C1.33334 8.14525 1.33468 8.28792 1.33668 8.42792L1.34801 8.83858L1.35668 9.03792L1.37934 9.42392L1.41001 9.79258C1.71934 12.9826 3.01734 14.2806 6.20734 14.5899L6.57601 14.6206L6.96201 14.6433C7.02734 14.6466 7.09401 14.6499 7.16134 14.6519L7.57201 14.6633L8.00001 14.6666L8.42801 14.6633L8.83868 14.6519L9.03801 14.6433L9.42401 14.6206L9.79268 14.5899C12.9827 14.2806 14.2807 12.9826 14.59 9.79258L14.6207 9.42392L14.6433 9.03792C14.6467 8.97258 14.65 8.90592 14.652 8.83858L14.6633 8.42792L14.6667 7.99992L14.6633 7.57192L14.652 7.16125L14.6433 6.96192L14.6207 6.57592L14.59 6.20725C14.2807 3.01725 12.9827 1.71925 9.79268 1.40992L9.42401 1.37925L9.03801 1.35659C8.97158 1.35334 8.90514 1.35045 8.83868 1.34792L8.42801 1.33659L8.21601 1.33392L8.00001 1.33325ZM9.52868 6.19525C9.64865 6.07569 9.80963 6.00627 9.97893 6.0011C10.1482 5.99593 10.3132 6.05539 10.4402 6.16742C10.5672 6.27944 10.6469 6.43562 10.6629 6.60423C10.679 6.77285 10.6303 6.94126 10.5267 7.07525L10.4713 7.13792L7.80468 9.80458C7.68988 9.91937 7.53715 9.98832 7.37513 9.99851C7.21311 10.0087 7.05295 9.95942 6.92468 9.85992L6.86201 9.80458L5.52868 8.47125C5.40911 8.35128 5.33969 8.1903 5.33452 8.021C5.32935 7.8517 5.38882 7.68678 5.50084 7.55973C5.61286 7.43269 5.76904 7.35305 5.93766 7.33699C6.10627 7.32092 6.27468 7.36964 6.40868 7.47325L6.47134 7.52858L7.33334 8.38992L9.52868 6.19525Z" fill="#E6E8E9"/>
</g>
<defs>
<clipPath id="clip0_253_331">
<rect width="16" height="16" fill="white"/>
</clipPath>
</defs>
</svg>
