<svg width="24" height="24" viewBox="0 0 24 24" fill="none" xmlns="http://www.w3.org/2000/svg">
<g clip-path="url(#clip0_39_350)">
<path d="M17.997 4.17C18.5827 4.37638 19.09 4.75945 19.4487 5.26635C19.8075 5.77324 20.0001 6.37899 20 7V19C20 19.7956 19.6839 20.5587 19.1213 21.1213C18.5587 21.6839 17.7956 22 17 22H7C6.20435 22 5.44129 21.6839 4.87868 21.1213C4.31607 20.5587 4 19.7956 4 19V7C3.99989 6.37899 4.19251 5.77324 4.55128 5.26635C4.91005 4.75945 5.41728 4.37638 6.003 4.17C6.04684 5.20061 6.48713 6.17443 7.23194 6.88812C7.97674 7.6018 8.96846 8.00016 10 8H14C14.9912 8.00009 15.947 7.63219 16.6824 6.96761C17.4177 6.30303 17.8801 5.38911 17.98 4.403L17.997 4.17ZM9.01 15H9C8.74512 15.0003 8.49997 15.0979 8.31463 15.2728C8.1293 15.4478 8.01776 15.687 8.00283 15.9414C7.98789 16.1958 8.07067 16.4464 8.23426 16.6418C8.39785 16.8373 8.6299 16.9629 8.883 16.993L9.01 17C9.27522 17 9.52957 16.8946 9.71711 16.7071C9.90464 16.5196 10.01 16.2652 10.01 16C10.01 15.7348 9.90464 15.4804 9.71711 15.2929C9.52957 15.1054 9.27522 15 9.01 15ZM15 15H13C12.7348 15 12.4804 15.1054 12.2929 15.2929C12.1054 15.4804 12 15.7348 12 16C12 16.2652 12.1054 16.5196 12.2929 16.7071C12.4804 16.8946 12.7348 17 13 17H15C15.2652 17 15.5196 16.8946 15.7071 16.7071C15.8946 16.5196 16 16.2652 16 16C16 15.7348 15.8946 15.4804 15.7071 15.2929C15.5196 15.1054 15.2652 15 15 15ZM9.01 11H9C8.74512 11.0003 8.49997 11.0979 8.31463 11.2728C8.1293 11.4478 8.01776 11.687 8.00283 11.9414C7.98789 12.1958 8.07067 12.4464 8.23426 12.6418C8.39785 12.8373 8.6299 12.9629 8.883 12.993L9.01 13C9.27522 13 9.52957 12.8946 9.71711 12.7071C9.90464 12.5196 10.01 12.2652 10.01 12C10.01 11.7348 9.90464 11.4804 9.71711 11.2929C9.52957 11.1054 9.27522 11 9.01 11ZM15 11H13C12.7348 11 12.4804 11.1054 12.2929 11.2929C12.1054 11.4804 12 11.7348 12 12C12 12.2652 12.1054 12.5196 12.2929 12.7071C12.4804 12.8946 12.7348 13 13 13H15C15.2652 13 15.5196 12.8946 15.7071 12.7071C15.8946 12.5196 16 12.2652 16 12C16 11.7348 15.8946 11.4804 15.7071 11.2929C15.5196 11.1054 15.2652 11 15 11ZM14 2C14.5304 2 15.0391 2.21071 15.4142 2.58579C15.7893 2.96086 16 3.46957 16 4C16 4.53043 15.7893 5.03914 15.4142 5.41421C15.0391 5.78929 14.5304 6 14 6H10C9.46957 6 8.96086 5.78929 8.58579 5.41421C8.21071 5.03914 8 4.53043 8 4C8 3.46957 8.21071 2.96086 8.58579 2.58579C8.96086 2.21071 9.46957 2 10 2H14Z" fill="#E6E8E9"/>
</g>
<defs>
<clipPath id="clip0_39_350">
<rect width="24" height="24" fill="white"/>
</clipPath>
</defs>
</svg>
