<svg width="16" height="16" viewBox="0 0 16 16" fill="none" xmlns="http://www.w3.org/2000/svg">
<g clip-path="url(#clip0_253_335)">
<path d="M8.00002 1.33325L8.42802 1.33659L8.83868 1.34792L9.03801 1.35659L9.42402 1.37925L9.79268 1.40992C12.9173 1.71325 14.226 2.96525 14.57 6.01392L14.59 6.20725L14.6207 6.57592L14.648 7.06058L14.652 7.16058L14.6633 7.57192L14.6667 7.99992L14.6633 8.42792L14.652 8.83858L14.6433 9.03792L14.6207 9.42392L14.59 9.79258C14.2867 12.9173 13.0347 14.2259 9.98602 14.5699L9.79268 14.5899L9.42402 14.6206L8.93935 14.6479L8.83935 14.6519L8.42802 14.6633L8.00002 14.6666L7.57202 14.6633L7.16135 14.6519L6.96201 14.6433L6.57602 14.6206L6.20735 14.5899C3.08268 14.2866 1.77401 13.0346 1.43001 9.98592L1.41001 9.79258L1.37935 9.42392L1.35202 8.93925L1.34801 8.83925L1.33668 8.42792L1.33401 8.21592V7.78392L1.33668 7.57192L1.34801 7.16125L1.35668 6.96192L1.37935 6.57592L1.41001 6.20725C1.71335 3.08259 2.96535 1.77392 6.01402 1.42992L6.20735 1.40992L6.57602 1.37925L7.06068 1.35192L7.16068 1.34792L7.57202 1.33659C7.71202 1.33459 7.85468 1.33325 8.00002 1.33325ZM8.00668 9.99992L7.92202 10.0046C7.75998 10.0239 7.61064 10.1019 7.50229 10.2239C7.39394 10.3459 7.33409 10.5034 7.33409 10.6666C7.33409 10.8298 7.39394 10.9873 7.50229 11.1093C7.61064 11.2313 7.75998 11.3093 7.92202 11.3286L8.00002 11.3333L8.08468 11.3286C8.24671 11.3093 8.39605 11.2313 8.50441 11.1093C8.61276 10.9873 8.67261 10.8298 8.67261 10.6666C8.67261 10.5034 8.61276 10.3459 8.50441 10.2239C8.39605 10.1019 8.24671 10.0239 8.08468 10.0046L8.00668 9.99992ZM8.00002 4.66658C7.83673 4.66661 7.67912 4.72656 7.5571 4.83506C7.43508 4.94357 7.35712 5.09308 7.33802 5.25525L7.33335 5.33325V7.99992L7.33802 8.07792C7.35729 8.23995 7.43532 8.38929 7.55732 8.49764C7.67933 8.606 7.83684 8.66584 8.00002 8.66584C8.16319 8.66584 8.3207 8.606 8.4427 8.49764C8.56471 8.38929 8.64274 8.23995 8.66202 8.07792L8.66668 7.99992V5.33325L8.66202 5.25525C8.64291 5.09308 8.56495 4.94357 8.44293 4.83506C8.32091 4.72656 8.1633 4.66661 8.00002 4.66658Z" fill="#E6E8E9"/>
</g>
<defs>
<clipPath id="clip0_253_335">
<rect width="16" height="16" fill="white"/>
</clipPath>
</defs>
</svg>
