<svg width="16" height="16" viewBox="0 0 16 16" fill="none" xmlns="http://www.w3.org/2000/svg">
<g clip-path="url(#clip0_253_339)">
<path d="M8.00002 1.33325L8.42802 1.33659L8.83868 1.34792L9.03801 1.35659L9.42402 1.37925L9.79268 1.40992C12.9173 1.71325 14.226 2.96525 14.57 6.01392L14.59 6.20725L14.6207 6.57592L14.648 7.06058L14.652 7.16058L14.6633 7.57192L14.6667 7.99992L14.6633 8.42792L14.652 8.83858L14.6433 9.03792L14.6207 9.42392L14.59 9.79258C14.2867 12.9173 13.0347 14.2259 9.98602 14.5699L9.79268 14.5899L9.42402 14.6206L8.93935 14.6479L8.83935 14.6519L8.42802 14.6633L8.00002 14.6666L7.57202 14.6633L7.16135 14.6519L6.96201 14.6433L6.57602 14.6206L6.20735 14.5899C3.08268 14.2866 1.77401 13.0346 1.43001 9.98592L1.41001 9.79258L1.37935 9.42392L1.35202 8.93925L1.34801 8.83925L1.33668 8.42792L1.33401 8.21592V7.78392L1.33668 7.57192L1.34801 7.16125L1.35668 6.96192L1.37935 6.57592L1.41001 6.20725C1.71335 3.08259 2.96535 1.77392 6.01402 1.42992L6.20735 1.40992L6.57602 1.37925L7.06068 1.35192L7.16068 1.34792L7.57202 1.33659C7.71202 1.33459 7.85468 1.33325 8.00002 1.33325ZM8.00002 7.33325H7.33335L7.25535 7.33792C7.09332 7.35719 6.94398 7.43522 6.83562 7.55723C6.72727 7.67923 6.66742 7.83674 6.66742 7.99992C6.66742 8.16309 6.72727 8.3206 6.83562 8.44261C6.94398 8.56461 7.09332 8.64264 7.25535 8.66192L7.33335 8.66658V10.6666L7.33802 10.7446C7.35556 10.8934 7.42273 11.032 7.52869 11.1379C7.63464 11.2439 7.7732 11.311 7.92202 11.3286L8.00002 11.3333H8.66668L8.74468 11.3286C8.89349 11.311 9.03205 11.2439 9.13801 11.1379C9.24396 11.032 9.31113 10.8934 9.32868 10.7446L9.33335 10.6666L9.32868 10.5886C9.31274 10.4526 9.25531 10.3248 9.16418 10.2225C9.07305 10.1203 8.95265 10.0486 8.81935 10.0173L8.74468 10.0039L8.66668 9.99992V7.99992L8.66202 7.92192C8.64447 7.77311 8.57729 7.63455 8.47134 7.52859C8.36539 7.42264 8.22683 7.35547 8.07801 7.33792L8.00002 7.33325ZM8.00668 5.33325L7.92202 5.33792C7.75998 5.35719 7.61064 5.43522 7.50229 5.55723C7.39394 5.67923 7.33409 5.83674 7.33409 5.99992C7.33409 6.16309 7.39394 6.3206 7.50229 6.44261C7.61064 6.56461 7.75998 6.64264 7.92202 6.66192L8.00002 6.66658L8.08468 6.66192C8.24671 6.64264 8.39605 6.56461 8.50441 6.44261C8.61276 6.3206 8.67261 6.16309 8.67261 5.99992C8.67261 5.83674 8.61276 5.67923 8.50441 5.55723C8.39605 5.43522 8.24671 5.35719 8.08468 5.33792L8.00668 5.33325Z" fill="#E6E8E9"/>
</g>
<defs>
<clipPath id="clip0_253_339">
<rect width="16" height="16" fill="white"/>
</clipPath>
</defs>
</svg>
