<svg width="16" height="16" viewBox="0 0 16 16" fill="none" xmlns="http://www.w3.org/2000/svg">
<g clip-path="url(#clip0_104_97)">
<path d="M5.33333 4.66667C5.33333 4.84348 5.2631 5.01305 5.13807 5.13807C5.01305 5.2631 4.84348 5.33333 4.66667 5.33333H4C3.82319 5.33333 3.65362 5.40357 3.5286 5.5286C3.40357 5.65362 3.33333 5.82319 3.33333 6V12C3.33333 12.1768 3.40357 12.3464 3.5286 12.4714C3.65362 12.5964 3.82319 12.6667 4 12.6667H10C10.1768 12.6667 10.3464 12.5964 10.4714 12.4714C10.5964 12.3464 10.6667 12.1768 10.6667 12V11.3333C10.6667 11.1565 10.7369 10.987 10.8619 10.8619C10.987 10.7369 11.1565 10.6667 11.3333 10.6667C11.5101 10.6667 11.6797 10.7369 11.8047 10.8619C11.9298 10.987 12 11.1565 12 11.3333V12C12 12.5304 11.7893 13.0391 11.4142 13.4142C11.0391 13.7893 10.5304 14 10 14H4C3.46957 14 2.96086 13.7893 2.58579 13.4142C2.21071 13.0391 2 12.5304 2 12V6C2 5.46957 2.21071 4.96086 2.58579 4.58579C2.96086 4.21071 3.46957 4 4 4H4.66667C4.84348 4 5.01305 4.07024 5.13807 4.19526C5.2631 4.32029 5.33333 4.48986 5.33333 4.66667Z" fill="black"/>
<path d="M9.73071 3.34079L12.6587 6.26879L8.47204 10.4708C8.41012 10.5329 8.33656 10.5822 8.25557 10.6158C8.17457 10.6494 8.08774 10.6668 8.00004 10.6668H6.00004C5.82323 10.6668 5.65366 10.5965 5.52864 10.4715C5.40361 10.3465 5.33337 10.1769 5.33337 10.0001V8.00012C5.33339 7.91242 5.35071 7.82559 5.38435 7.74459C5.41798 7.6636 5.46726 7.59004 5.52937 7.52812L9.73071 3.34079ZM14.0614 1.93879C14.4291 2.30622 14.6446 2.79883 14.665 3.31825C14.6854 3.83766 14.5091 4.34566 14.1714 4.74079L14.062 4.86079L13.6 5.32345L10.6754 2.39879L11.1387 1.93879C11.5263 1.55123 12.0519 1.3335 12.6 1.3335C13.1481 1.3335 13.6738 1.55123 14.0614 1.93879Z" fill="black"/>
</g>
<defs>
<clipPath id="clip0_104_97">
<rect width="16" height="16" fill="white"/>
</clipPath>
</defs>
</svg>
