<svg width="16" height="16" viewBox="0 0 16 16" fill="none" xmlns="http://www.w3.org/2000/svg">
<g clip-path="url(#clip0_292_177)">
<path d="M7.99996 1.3335C8.65923 1.3335 9.3037 1.52899 9.85186 1.89526C10.4 2.26154 10.8273 2.78213 11.0796 3.39122C11.3318 4.0003 11.3979 4.67053 11.2692 5.31713C11.1406 5.96373 10.8232 6.55768 10.357 7.02385C9.89081 7.49003 9.29686 7.8075 8.65026 7.93611C8.00366 8.06473 7.33343 7.99872 6.72435 7.74643C6.11526 7.49414 5.59467 7.06689 5.22839 6.51873C4.86212 5.97057 4.66663 5.3261 4.66663 4.66683L4.66996 4.52216C4.70724 3.664 5.07436 2.85335 5.69477 2.25927C6.31519 1.66519 7.14098 1.33355 7.99996 1.3335Z" fill="#E6E8E9"/>
<path d="M9.33337 9.3335C10.2174 9.3335 11.0653 9.68469 11.6904 10.3098C12.3155 10.9349 12.6667 11.7828 12.6667 12.6668V13.3335C12.6667 13.6871 12.5262 14.0263 12.2762 14.2763C12.0261 14.5264 11.687 14.6668 11.3334 14.6668H4.66671C4.31309 14.6668 3.97395 14.5264 3.7239 14.2763C3.47385 14.0263 3.33337 13.6871 3.33337 13.3335V12.6668C3.33337 11.7828 3.68456 10.9349 4.30968 10.3098C4.93481 9.68469 5.78265 9.3335 6.66671 9.3335H9.33337Z" fill="#E6E8E9"/>
</g>
<defs>
<clipPath id="clip0_292_177">
<rect width="16" height="16" fill="white"/>
</clipPath>
</defs>
</svg>
