<svg width="16" height="16" viewBox="0 0 16 16" fill="none" xmlns="http://www.w3.org/2000/svg">
<g clip-path="url(#clip0_48_578)">
<path d="M2.66667 2H4C4.17681 2 4.34638 2.07024 4.4714 2.19526C4.59643 2.32029 4.66667 2.48986 4.66667 2.66667V4C4.66667 4.17681 4.59643 4.34638 4.4714 4.4714C4.34638 4.59643 4.17681 4.66667 4 4.66667H2.66667C2.48986 4.66667 2.32029 4.59643 2.19526 4.4714C2.07024 4.34638 2 4.17681 2 4V2.66667C2 2.48986 2.07024 2.32029 2.19526 2.19526C2.32029 2.07024 2.48986 2 2.66667 2Z" stroke="#E6E8E9" stroke-linecap="round" stroke-linejoin="round"/>
<path d="M12 2H13.3333C13.5101 2 13.6797 2.07024 13.8047 2.19526C13.9298 2.32029 14 2.48986 14 2.66667V4C14 4.17681 13.9298 4.34638 13.8047 4.4714C13.6797 4.59643 13.5101 4.66667 13.3333 4.66667H12C11.8232 4.66667 11.6536 4.59643 11.5286 4.4714C11.4036 4.34638 11.3333 4.17681 11.3333 4V2.66667C11.3333 2.48986 11.4036 2.32029 11.5286 2.19526C11.6536 2.07024 11.8232 2 12 2Z" stroke="#E6E8E9" stroke-linecap="round" stroke-linejoin="round"/>
<path d="M7.33334 2H8.66667C8.84348 2 9.01305 2.07024 9.13808 2.19526C9.2631 2.32029 9.33334 2.48986 9.33334 2.66667V4C9.33334 4.17681 9.2631 4.34638 9.13808 4.4714C9.01305 4.59643 8.84348 4.66667 8.66667 4.66667H7.33334C7.15653 4.66667 6.98696 4.59643 6.86193 4.4714C6.73691 4.34638 6.66667 4.17681 6.66667 4V2.66667C6.66667 2.48986 6.73691 2.32029 6.86193 2.19526C6.98696 2.07024 7.15653 2 7.33334 2Z" stroke="#E6E8E9" stroke-linecap="round" stroke-linejoin="round"/>
<path d="M2.66667 6.6665H4C4.17681 6.6665 4.34638 6.73674 4.4714 6.86177C4.59643 6.98679 4.66667 7.15636 4.66667 7.33317V8.6665C4.66667 8.84331 4.59643 9.01288 4.4714 9.13791C4.34638 9.26293 4.17681 9.33317 4 9.33317H2.66667C2.48986 9.33317 2.32029 9.26293 2.19526 9.13791C2.07024 9.01288 2 8.84331 2 8.6665V7.33317C2 7.15636 2.07024 6.98679 2.19526 6.86177C2.32029 6.73674 2.48986 6.6665 2.66667 6.6665Z" stroke="#E6E8E9" stroke-linecap="round" stroke-linejoin="round"/>
<path d="M12 6.6665H13.3333C13.5101 6.6665 13.6797 6.73674 13.8047 6.86177C13.9298 6.98679 14 7.15636 14 7.33317V8.6665C14 8.84331 13.9298 9.01288 13.8047 9.13791C13.6797 9.26293 13.5101 9.33317 13.3333 9.33317H12C11.8232 9.33317 11.6536 9.26293 11.5286 9.13791C11.4036 9.01288 11.3333 8.84331 11.3333 8.6665V7.33317C11.3333 7.15636 11.4036 6.98679 11.5286 6.86177C11.6536 6.73674 11.8232 6.6665 12 6.6665Z" stroke="#E6E8E9" stroke-linecap="round" stroke-linejoin="round"/>
<path d="M7.33334 6.6665H8.66667C8.84348 6.6665 9.01305 6.73674 9.13808 6.86177C9.2631 6.98679 9.33334 7.15636 9.33334 7.33317V8.6665C9.33334 8.84331 9.2631 9.01288 9.13808 9.13791C9.01305 9.26293 8.84348 9.33317 8.66667 9.33317H7.33334C7.15653 9.33317 6.98696 9.26293 6.86193 9.13791C6.73691 9.01288 6.66667 8.84331 6.66667 8.6665V7.33317C6.66667 7.15636 6.73691 6.98679 6.86193 6.86177C6.98696 6.73674 7.15653 6.6665 7.33334 6.6665Z" stroke="#E6E8E9" stroke-linecap="round" stroke-linejoin="round"/>
<path d="M7.33334 11.3335H8.66667C8.84348 11.3335 9.01305 11.4037 9.13808 11.5288C9.2631 11.6538 9.33334 11.8234 9.33334 12.0002V13.3335C9.33334 13.5103 9.2631 13.6799 9.13808 13.8049C9.01305 13.9299 8.84348 14.0002 8.66667 14.0002H7.33334C7.15653 14.0002 6.98696 13.9299 6.86193 13.8049C6.73691 13.6799 6.66667 13.5103 6.66667 13.3335V12.0002C6.66667 11.8234 6.73691 11.6538 6.86193 11.5288C6.98696 11.4037 7.15653 11.3335 7.33334 11.3335Z" stroke="#E6E8E9" stroke-linecap="round" stroke-linejoin="round"/>
</g>
<defs>
<clipPath id="clip0_48_578">
<rect width="16" height="16" fill="white"/>
</clipPath>
</defs>
</svg>
