<svg width="16" height="16" viewBox="0 0 16 16" fill="none" xmlns="http://www.w3.org/2000/svg">
<g clip-path="url(#clip0_48_595)">
<path d="M8 10.6665V10.6732" stroke="#E6E8E9" stroke-linecap="round" stroke-linejoin="round"/>
<path d="M8 8.66651C8.29983 8.66741 8.59122 8.56722 8.8271 8.38213C9.06299 8.19704 9.2296 7.93784 9.30003 7.64639C9.37046 7.35495 9.34061 7.04827 9.21529 6.77588C9.08996 6.5035 8.87649 6.2813 8.60933 6.14518C8.34412 6.00932 8.04074 5.96719 7.74854 6.02566C7.45634 6.08412 7.19252 6.23973 7 6.46718" stroke="#E6E8E9" stroke-linecap="round" stroke-linejoin="round"/>
<path d="M6.66667 13.8516C6.08641 13.7199 5.52912 13.5022 5.01334 13.2056" stroke="#E6E8E9" stroke-linecap="round" stroke-linejoin="round"/>
<path d="M9.33333 2.14844C10.6588 2.45115 11.8422 3.1949 12.6898 4.25791C13.5374 5.32092 13.999 6.64021 13.999 7.99977C13.999 9.35934 13.5374 10.6786 12.6898 11.7416C11.8422 12.8046 10.6588 13.5484 9.33333 13.8511" stroke="#E6E8E9" stroke-linecap="round" stroke-linejoin="round"/>
<path d="M3.05266 11.3955C2.689 10.8671 2.4128 10.2837 2.23466 9.66748" stroke="#E6E8E9" stroke-linecap="round" stroke-linejoin="round"/>
<path d="M2.08267 6.99985C2.18934 6.36652 2.39467 5.76652 2.68267 5.21652L2.79534 5.01318" stroke="#E6E8E9" stroke-linecap="round" stroke-linejoin="round"/>
<path d="M4.60466 3.05244C5.22843 2.62304 5.92821 2.31625 6.66666 2.14844" stroke="#E6E8E9" stroke-linecap="round" stroke-linejoin="round"/>
</g>
<defs>
<clipPath id="clip0_48_595">
<rect width="16" height="16" fill="white"/>
</clipPath>
</defs>
</svg>
