<svg width="16" height="16" viewBox="0 0 16 16" fill="none" xmlns="http://www.w3.org/2000/svg">
<g clip-path="url(#clip0_48_612)">
<path d="M2 11.3333C2 11.687 2.14048 12.0261 2.39052 12.2761C2.64057 12.5262 2.97971 12.6667 3.33333 12.6667C3.68696 12.6667 4.02609 12.5262 4.27614 12.2761C4.52619 12.0261 4.66667 11.687 4.66667 11.3333C4.66667 10.9797 4.52619 10.6406 4.27614 10.3905C4.02609 10.1405 3.68696 10 3.33333 10C2.97971 10 2.64057 10.1405 2.39052 10.3905C2.14048 10.6406 2 10.9797 2 11.3333Z" stroke="#E6E8E9" stroke-linecap="round" stroke-linejoin="round"/>
<path d="M8 11.3333C8 11.687 8.14048 12.0261 8.39052 12.2761C8.64057 12.5262 8.97971 12.6667 9.33333 12.6667C9.68696 12.6667 10.0261 12.5262 10.2761 12.2761C10.5262 12.0261 10.6667 11.687 10.6667 11.3333C10.6667 10.9797 10.5262 10.6406 10.2761 10.3905C10.0261 10.1405 9.68696 10 9.33333 10C8.97971 10 8.64057 10.1405 8.39052 10.3905C8.14048 10.6406 8 10.9797 8 11.3333Z" stroke="#E6E8E9" stroke-linecap="round" stroke-linejoin="round"/>
<path d="M4.66667 11.3335H8" stroke="#E6E8E9" stroke-linecap="round" stroke-linejoin="round"/>
<path d="M2 11.3335V7.3335H10.6667V11.3335" stroke="#E6E8E9" stroke-linecap="round" stroke-linejoin="round"/>
<path d="M3.33333 7.33317V4.6665H5.99999" stroke="#E6E8E9" stroke-linecap="round" stroke-linejoin="round"/>
<path d="M6 7.3335V3.3335H8.66667L10.6667 7.3335" stroke="#E6E8E9" stroke-linecap="round" stroke-linejoin="round"/>
<path d="M14.6667 10.0002H12.6667V3.3335" stroke="#E6E8E9" stroke-linecap="round" stroke-linejoin="round"/>
<path d="M10.6667 8.6665H12.6667" stroke="#E6E8E9" stroke-linecap="round" stroke-linejoin="round"/>
</g>
<defs>
<clipPath id="clip0_48_612">
<rect width="16" height="16" fill="white"/>
</clipPath>
</defs>
</svg>
