<svg width="16" height="16" viewBox="0 0 16 16" fill="none" xmlns="http://www.w3.org/2000/svg">
<g clip-path="url(#clip0_253_323)">
<path d="M8.00001 0L8.21601 0.000666618L8.42801 0.00333341L8.83868 0.0146667L9.03801 0.0233334L9.42401 0.046L9.79268 0.0766667C12.9827 0.386 14.2807 1.684 14.59 4.874L14.6207 5.24267L14.6433 5.62867C14.6467 5.694 14.65 5.76067 14.652 5.828L14.6633 6.23867L14.6667 6.66667L14.6633 7.09467L14.652 7.50533L14.6433 7.70467L14.6207 8.09067L14.59 8.45933C14.2807 11.6493 12.9827 12.9473 9.79268 13.2567L9.42401 13.2873L9.03801 13.31C8.97268 13.3133 8.90601 13.3167 8.83868 13.3187L8.42801 13.33L8.00001 13.3333L7.57201 13.33L7.16134 13.3187L6.96201 13.31L6.57601 13.2873L6.20734 13.2567C3.01734 12.9473 1.71934 11.6493 1.41001 8.45933L1.37934 8.09067L1.35668 7.70467C1.35343 7.63824 1.35054 7.57179 1.34801 7.50533L1.33668 7.09467C1.33468 6.95467 1.33334 6.812 1.33334 6.66667L1.33401 6.45067L1.33668 6.23867L1.34801 5.828L1.35668 5.62867L1.37934 5.24267L1.41001 4.874C1.71934 1.684 3.01734 0.386 6.20734 0.0766667L6.57601 0.046L6.96201 0.0233334C7.02734 0.0200001 7.09401 0.0166667 7.16134 0.0146667L7.57201 0.00333341C7.71201 0.00133341 7.85468 0 8.00001 0ZM7.00734 4.76C6.86766 4.67685 6.70242 4.6476 6.54268 4.67775C6.38295 4.7079 6.23973 4.79538 6.13998 4.92372C6.04022 5.05206 5.99079 5.21243 6.00098 5.37467C6.01118 5.5369 6.0803 5.68982 6.19534 5.80467L7.05668 6.66667L6.19534 7.52867L6.14001 7.59133C6.0364 7.72533 5.98768 7.89373 6.00374 8.06235C6.01981 8.23097 6.09945 8.38715 6.22649 8.49917C6.35353 8.61119 6.51845 8.67065 6.68775 8.66548C6.85705 8.66032 7.01804 8.5909 7.13801 8.47133L8.00001 7.61L8.86201 8.47133L8.92468 8.52667C9.05867 8.63027 9.22708 8.67899 9.39569 8.66293C9.56431 8.64687 9.72049 8.56723 9.83251 8.44018C9.94453 8.31314 10.004 8.14822 9.99883 7.97892C9.99366 7.80962 9.92424 7.64864 9.80468 7.52867L8.94334 6.66667L9.80468 5.80467L9.86001 5.742C9.96362 5.60801 10.0123 5.4396 9.99628 5.27098C9.98021 5.10237 9.90057 4.94619 9.77353 4.83417C9.64649 4.72214 9.48157 4.66268 9.31227 4.66785C9.14297 4.67302 8.98198 4.74243 8.86201 4.862L8.00001 5.72333L7.13801 4.862L7.07534 4.80667L7.00734 4.76Z" fill="#E6E8E9"/>
</g>
<defs>
<clipPath id="clip0_253_323">
<rect width="16" height="16" fill="white"/>
</clipPath>
</defs>
</svg>
